<svg width="7" height="4" viewBox="0 0 7 4" fill="none" xmlns="http://www.w3.org/2000/svg">
<mask id="path-1-inside-1_15_6" fill="white">
<path d="M0.360107 0.219971H6.36011V3.21997H0.360107V0.219971Z"/>
</mask>
<g clip-path="url(#paint0_diamond_15_6_clip_path)" data-figma-skip-parse="true" mask="url(#path-1-inside-1_15_6)"><g transform="matrix(0.003 0 0 0.003 3.36011 0.219971)"><rect x="0" y="0" width="1333.33" height="1333.33" fill="url(#paint0_diamond_15_6)" opacity="1" shape-rendering="crispEdges"/><rect x="0" y="0" width="1333.33" height="1333.33" transform="scale(1 -1)" fill="url(#paint0_diamond_15_6)" opacity="1" shape-rendering="crispEdges"/><rect x="0" y="0" width="1333.33" height="1333.33" transform="scale(-1 1)" fill="url(#paint0_diamond_15_6)" opacity="1" shape-rendering="crispEdges"/><rect x="0" y="0" width="1333.33" height="1333.33" transform="scale(-1)" fill="url(#paint0_diamond_15_6)" opacity="1" shape-rendering="crispEdges"/></g></g><path d="M0.360107 0.219971V-2.78003H-2.63989V0.219971H0.360107ZM6.36011 0.219971H9.36011V-2.78003H6.36011V0.219971ZM0.360107 3.21997H6.36011V-2.78003H0.360107V3.21997ZM3.36011 0.219971V3.21997H9.36011V0.219971H3.36011ZM3.36011 3.21997V0.219971H-2.63989V3.21997H3.36011Z" data-figma-gradient-fill="{&#34;type&#34;:&#34;GRADIENT_DIAMOND&#34;,&#34;stops&#34;:[{&#34;color&#34;:{&#34;r&#34;:0.20000000298023224,&#34;g&#34;:0.20000000298023224,&#34;b&#34;:0.20000000298023224,&#34;a&#34;:1.0},&#34;position&#34;:0.99999988079071045},{&#34;color&#34;:{&#34;r&#34;:0.0,&#34;g&#34;:0.0,&#34;b&#34;:0.0,&#34;a&#34;:0.0},&#34;position&#34;:1.0}],&#34;stopsVar&#34;:[{&#34;color&#34;:{&#34;r&#34;:0.20000000298023224,&#34;g&#34;:0.20000000298023224,&#34;b&#34;:0.20000000298023224,&#34;a&#34;:1.0},&#34;position&#34;:0.99999988079071045},{&#34;color&#34;:{&#34;r&#34;:0.0,&#34;g&#34;:0.0,&#34;b&#34;:0.0,&#34;a&#34;:0.0},&#34;position&#34;:1.0}],&#34;transform&#34;:{&#34;m00&#34;:6.0,&#34;m01&#34;:0.0,&#34;m02&#34;:0.3601074218750,&#34;m10&#34;:0.0,&#34;m11&#34;:6.0,&#34;m12&#34;:-2.7800292968750},&#34;opacity&#34;:1.0,&#34;blendMode&#34;:&#34;NORMAL&#34;,&#34;visible&#34;:true}" mask="url(#path-1-inside-1_15_6)"/>
<defs>
<clipPath id="paint0_diamond_15_6_clip_path"><path d="M0.360107 0.219971V-2.78003H-2.63989V0.219971H0.360107ZM6.36011 0.219971H9.36011V-2.78003H6.36011V0.219971ZM0.360107 3.21997H6.36011V-2.78003H0.360107V3.21997ZM3.36011 0.219971V3.21997H9.36011V0.219971H3.36011ZM3.36011 3.21997V0.219971H-2.63989V3.21997H3.36011Z" mask="url(#path-1-inside-1_15_6)"/></clipPath><linearGradient id="paint0_diamond_15_6" x1="0" y1="0" x2="500" y2="500" gradientUnits="userSpaceOnUse">
<stop offset="1" stop-color="#333333"/>
<stop offset="1" stop-opacity="0"/>
</linearGradient>
</defs>
</svg>
