<svg width="897" height="715" viewBox="0 0 897 715" fill="none" xmlns="http://www.w3.org/2000/svg">
<path d="M448.5 144.679L128.59 408.412C128.59 408.784 128.496 409.332 128.309 410.078C128.126 410.819 128.028 411.356 128.028 411.738V678.796C128.028 688.438 131.554 696.794 138.602 703.831C145.649 710.872 153.993 714.415 163.638 714.415H377.278V500.763H519.725V714.423H733.363C743.005 714.423 751.361 710.888 758.398 703.831C765.447 696.802 768.984 688.44 768.984 678.796V411.738C768.984 410.257 768.781 409.139 768.422 408.412L448.5 144.679Z" fill="#ffe0c7"/>
<path d="M890.811 348.32L768.972 247.06V20.0568C768.972 14.8673 767.304 10.5996 763.956 7.25945C760.635 3.92321 756.367 2.25508 751.166 2.25508H644.344C639.149 2.25508 634.883 3.92321 631.541 7.25945C628.207 10.5996 626.541 14.8693 626.541 20.0568V128.549L490.788 15.0447C478.932 5.40035 464.834 0.579163 448.512 0.579163C432.191 0.579163 418.096 5.40035 406.228 15.0447L6.1815 348.32C2.47306 351.283 0.440524 355.27 0.0624694 360.278C-0.313637 365.282 0.982274 369.653 3.9541 373.36L38.4487 414.533C41.4205 417.869 45.3102 419.909 50.1333 420.656C54.5862 421.03 59.0391 419.728 63.4919 416.762L448.5 95.7226L833.512 416.76C836.486 419.348 840.374 420.64 845.197 420.64H846.869C851.684 419.908 855.566 417.854 858.553 414.525L893.052 373.358C896.018 369.644 897.318 365.28 896.932 360.27C896.552 355.276 894.512 351.288 890.811 348.32Z" fill="#ffe0c7"/>
</svg>
