<?xml version="1.0" encoding="UTF-8"?>
<svg id="Layer_1" data-name="Layer 1" xmlns="http://www.w3.org/2000/svg" viewBox="0 0 1023.05 360.56">
  <defs>
    <style>
      .cls-1 {
        fill: #000;
        stroke-width: 0px;
      }
    </style>
  </defs>
  <g>
    <path class="cls-1" d="M0,0h111.22c57.95,0,84.71,20.26,84.71,63.14s-26.76,62.88-84.71,62.88h-63.67v55.87H0V0ZM47.56,38.2v49.63h63.41c25.47,0,36.38-8.06,36.38-24.69s-10.91-24.95-36.38-24.95h-63.41Z"/>
    <path class="cls-1" d="M231.27,0h111.22c57.95,0,84.71,21.05,84.71,61.07,0,31.44-15.33,49.89-44.96,54.83-.78.26-2.34.26-3.12.52,13.77,11.17,23.13,24.69,37.94,24.69h22.86v41.58h-28.58c-48.86,0-58.73-60.03-105.24-62.63h-27.28v61.85h-47.56V0ZM278.83,38.2v49.37h63.41c25.47,0,36.38-8.06,36.38-24.69s-10.91-24.69-36.38-24.69h-63.41Z"/>
    <path class="cls-1" d="M469.04,0h47.56v181.9h-47.56V0Z"/>
    <path class="cls-1" d="M562.33,0h53.79l62.89,80.81h7.27L749.16,0h53.53v181.9h-47.3v-115.64h-4.68l-49.89,65.22h-36.64l-49.89-65.22h-4.42v115.64h-47.56V0Z"/>
    <path class="cls-1" d="M848.43,0h174.63v38.2h-127.07v32.74h104.98v35.08h-104.98v37.68h127.07v38.2h-174.63V0Z"/>
  </g>
  <g>
    <path class="cls-1" d="M0,217.29h7.79l20.78,25.99h1.81l20.78-25.99h7.78v48.65h-7.78v-35.93h-1.04l-16.89,21.19h-7.5l-16.89-21.19h-1.04v35.93H0v-48.65Z"/>
    <path class="cls-1" d="M104.91,216.6c17.1,0,28.42,10.01,28.42,25.02s-11.33,25.02-28.42,25.02-28.5-10.01-28.5-25.02,11.39-25.02,28.5-25.02ZM104.91,260.17c12.16,0,20.5-7.29,20.5-18.56s-8.34-18.48-20.5-18.48-20.57,7.23-20.57,18.48,8.41,18.56,20.57,18.56Z"/>
    <path class="cls-1" d="M150.81,217.29h27.31c13.62,0,20.16,5.28,20.16,15.15,0,8.76-4.66,14.31-13.62,14.31,5.35,5.07,8.13,12.24,13.27,12.24h5.77v6.95h-7.58c-11.67,0-12.3-16.96-25.16-18.7h-12.37v18.7h-7.79v-48.65ZM158.6,223.82v17.24h19.32c8.9,0,12.44-2.78,12.44-8.62s-3.55-8.62-12.44-8.62h-19.32Z"/>
    <path class="cls-1" d="M237.16,224.1h-23.62v-6.81h55.11v6.81h-23.69v41.84h-7.79v-41.84Z"/>
    <path class="cls-1" d="M324.13,259.2v-18.77h7.78v23.83c-6.81,1.6-14.53,2.37-23.14,2.37-17.58,0-29.6-9.59-29.6-25.02s12.02-25.02,29.74-25.02c8.97,0,15.64.63,21.27,2.09v6.81c-5.21-1.46-13.97-2.36-21.69-2.36-12.86,0-21.4,6.81-21.4,18.48s8.69,18.49,21.75,18.49c5.35,0,10.98-.35,15.29-.9Z"/>
    <path class="cls-1" d="M367.46,217.29h14.87l21.54,48.65h-8.34l-5-11.6h-31.27l-5,11.6h-8.34l21.54-48.65ZM387.89,248.08l-10.22-23.84h-5.55l-10.22,23.84h25.99Z"/>
    <path class="cls-1" d="M458.68,259.2v-18.77h7.78v23.83c-6.81,1.6-14.53,2.37-23.14,2.37-17.58,0-29.6-9.59-29.6-25.02s12.02-25.02,29.74-25.02c8.97,0,15.64.63,21.27,2.09v6.81c-5.21-1.46-13.97-2.36-21.69-2.36-12.86,0-21.4,6.81-21.4,18.48s8.69,18.49,21.75,18.49c5.35,0,10.98-.35,15.29-.9Z"/>
    <path class="cls-1" d="M485.32,217.29h42.4v6.81h-34.61v12.93h29.05v6.81h-29.05v15.29h34.61v6.81h-42.4v-48.65Z"/>
    <path class="cls-1" d="M591,244.89c-10.64-.14-23.49.35-23.49-13.9,0-11.54,10.5-14.25,23.07-14.39,7.16-.07,13.9.7,20.08,1.95v6.81c-6.81-1.46-15.56-2.5-21.89-2.36-7.16.21-13.48,2.01-13.48,8.2,0,6.74,7.02,6.95,16.34,6.95s21.54-.21,21.54,13.9c0,9.8-8.27,14.74-24.74,14.53-7.92-.07-15.98-1.32-20.92-2.16v-6.95c3.82.56,12.93,2.5,21.82,2.57,10.57.07,16.06-2.57,16.06-8.34,0-6.32-6.61-6.74-14.39-6.81Z"/>
    <path class="cls-1" d="M630.64,217.29h42.4v6.81h-34.61v12.93h29.05v6.81h-29.05v15.29h34.61v6.81h-42.4v-48.65Z"/>
    <path class="cls-1" d="M691.2,217.29h27.31c13.62,0,20.16,5.28,20.16,15.15,0,8.76-4.66,14.31-13.62,14.31,5.35,5.07,8.13,12.24,13.27,12.24h5.77v6.95h-7.58c-11.67,0-12.3-16.96-25.16-18.7h-12.37v18.7h-7.79v-48.65ZM698.99,223.82v17.24h19.32c8.9,0,12.44-2.78,12.44-8.62s-3.55-8.62-12.44-8.62h-19.32Z"/>
    <path class="cls-1" d="M754.62,217.29h8.34l17.86,41.7h5.55l17.86-41.7h8.34l-21.54,48.65h-14.87l-21.54-48.65Z"/>
    <path class="cls-1" d="M827.97,217.29h7.79v48.65h-7.79v-48.65Z"/>
    <path class="cls-1" d="M902.83,257.74v6.81c-4.87,1.25-11.05,2.09-20.85,2.09-17.17,0-28.77-9.59-28.77-25.02s11.6-25.02,28.77-25.02c9.79,0,15.98.84,20.85,2.09v6.81c-5.28-1.46-13.76-2.36-21.13-2.36-12.31,0-20.57,6.81-20.57,18.48s8.27,18.49,20.57,18.49c7.36,0,15.84-.9,21.13-2.36Z"/>
    <path class="cls-1" d="M919.6,217.29h42.4v6.81h-34.61v12.93h29.05v6.81h-29.05v15.29h34.61v6.81h-42.4v-48.65Z"/>
    <path class="cls-1" d="M1000.88,244.89c-10.64-.14-23.49.35-23.49-13.9,0-11.54,10.5-14.25,23.07-14.39,7.16-.07,13.9.7,20.08,1.95v6.81c-6.81-1.46-15.56-2.5-21.89-2.36-7.16.21-13.48,2.01-13.48,8.2,0,6.74,7.02,6.95,16.34,6.95s21.54-.21,21.54,13.9c0,9.8-8.27,14.74-24.74,14.53-7.92-.07-15.98-1.32-20.92-2.16v-6.95c3.82.56,12.93,2.5,21.82,2.57,10.57.07,16.06-2.57,16.06-8.34,0-6.32-6.61-6.74-14.39-6.81Z"/>
  </g>
  <g>
    <path class="cls-1" d="M127.68,317.07c-2.41,0-4.66.41-6.73,1.22-2.08.81-3.89,1.99-5.42,3.52-1.54,1.53-2.73,3.34-3.59,5.42-.86,2.08-1.29,4.36-1.29,6.83s.43,4.75,1.29,6.83c.86,2.08,2.05,3.88,3.59,5.42s3.34,2.71,5.42,3.52c2.08.81,4.33,1.22,6.73,1.22s4.41-.3,6-.9c1.59-.59,3.08-1.45,4.46-2.58v-6.57c-.75.88-1.63,1.66-2.65,2.37-1.02.71-2.15,1.26-3.4,1.66s-2.66.61-4.22.61c-2,0-3.86-.48-5.56-1.43s-3.08-2.31-4.13-4.06-1.57-3.79-1.57-6.1.52-4.39,1.57-6.12,2.43-3.08,4.13-4.03c1.7-.95,3.56-1.43,5.56-1.43,1.57,0,2.97.2,4.22.61s2.38.96,3.4,1.66c1.02.71,1.9,1.49,2.65,2.37v-6.57c-1.38-1.13-2.87-1.99-4.46-2.59-1.59-.59-3.6-.89-6-.89Z"/>
    <path class="cls-1" d="M179.64,321.88c-1.55-1.52-3.35-2.69-5.42-3.54-2.06-.84-4.33-1.27-6.8-1.27s-4.66.43-6.73,1.27c-2.08.84-3.89,2.02-5.44,3.54s-2.74,3.31-3.59,5.37-1.26,4.33-1.26,6.8.42,4.71,1.26,6.8,2.03,3.91,3.54,5.44c1.52,1.53,3.32,2.73,5.42,3.59,2.1.86,4.36,1.29,6.8,1.29s4.75-.43,6.82-1.29c2.08-.86,3.89-2.06,5.43-3.59,1.53-1.54,2.72-3.35,3.56-5.44s1.26-4.36,1.26-6.8-.42-4.74-1.26-6.8-2.04-3.86-3.59-5.37ZM177.15,340.08c-.95,1.77-2.27,3.15-3.94,4.15-1.68,1-3.61,1.5-5.79,1.5s-4.08-.5-5.77-1.5c-1.69-1-3.01-2.39-3.96-4.15s-1.43-3.78-1.43-6.03.48-4.26,1.43-6.03,2.27-3.15,3.96-4.15c1.69-1,3.61-1.5,5.77-1.5s4.17.5,5.84,1.5c1.68,1,2.98,2.39,3.92,4.15s1.41,3.77,1.41,6.03-.48,4.26-1.44,6.03Z"/>
    <polygon class="cls-1" points="213.31 338.28 199.85 315.99 195.34 350.48 201.07 350.48 203.31 330.49 213.31 347.43 223.31 330.49 225.61 350.48 231.33 350.48 226.83 315.99 213.31 338.28"/>
    <polygon class="cls-1" points="260.14 338.28 246.67 315.99 242.17 350.48 247.89 350.48 250.14 330.49 260.14 347.43 270.13 330.49 272.43 350.48 278.15 350.48 273.65 315.99 260.14 338.28"/>
    <polygon class="cls-1" points="294.29 317.63 290.87 317.63 290.87 350.48 294.29 350.48 296.31 350.48 310.86 350.48 310.86 345.6 296.31 345.6 296.31 335.28 309.92 335.28 309.92 330.49 296.31 330.49 296.31 322.51 310.86 322.51 310.86 317.63 296.31 317.63 294.29 317.63"/>
    <path class="cls-1" d="M341.33,336.77c1.77-.84,3.14-2.03,4.1-3.56.97-1.53,1.45-3.33,1.45-5.39s-.48-3.86-1.45-5.37c-.97-1.52-2.34-2.7-4.1-3.54-1.77-.84-3.84-1.26-6.22-1.26h-10.13v32.84h5.54v-12.43h3.38l8.3,12.43h6.66l-9.31-13.12c.6-.18,1.23-.33,1.77-.59ZM330.52,322.42h4.36c1.25,0,2.35.22,3.3.66s1.7,1.06,2.23,1.87.8,1.82.8,3-.27,2.15-.8,2.98c-.53.83-1.28,1.46-2.23,1.9s-2.06.65-3.3.65h-4.36v-11.07Z"/>
    <path class="cls-1" d="M375.37,317.07c-2.41,0-4.66.41-6.73,1.22-2.08.81-3.89,1.99-5.42,3.52-1.54,1.53-2.73,3.34-3.59,5.42-.86,2.08-1.29,4.36-1.29,6.83s.43,4.75,1.29,6.83c.86,2.08,2.05,3.88,3.59,5.42,1.53,1.53,3.34,2.71,5.42,3.52,2.08.81,4.33,1.22,6.73,1.22s4.41-.3,6-.9c1.59-.59,3.08-1.45,4.46-2.58v-6.57c-.75.88-1.63,1.66-2.65,2.37-1.02.71-2.15,1.26-3.4,1.66-1.25.41-2.66.61-4.22.61-2,0-3.86-.48-5.56-1.43-1.7-.95-3.08-2.31-4.13-4.06-1.05-1.75-1.57-3.79-1.57-6.1s.52-4.39,1.57-6.12c1.05-1.73,2.43-3.08,4.13-4.03s3.56-1.43,5.56-1.43c1.57,0,2.97.2,4.22.61s2.38.96,3.4,1.66c1.02.71,1.9,1.49,2.65,2.37v-6.57c-1.38-1.13-2.87-1.99-4.46-2.59-1.59-.59-3.6-.89-6-.89Z"/>
    <rect class="cls-1" x="399.96" y="317.63" width="5.58" height="32.84"/>
    <path class="cls-1" d="M416.66,350.48h6.24l3.74-8.44h12.11l3.77,8.44h6.24l-16.05-34.67-16.05,34.67ZM437.15,337.34h-8.9l4.46-10.42,4.45,10.42Z"/>
    <polygon class="cls-1" points="465.42 317.63 459.88 317.63 459.88 350.48 478.46 350.48 478.46 345.5 465.42 345.5 465.42 317.63"/>
    <rect class="cls-1" x="512.2" y="313.64" width="4.92" height="46.92"/>
    <path class="cls-1" d="M570.54,336.77c1.77-.84,3.14-2.03,4.1-3.56.97-1.53,1.45-3.33,1.45-5.39s-.48-3.86-1.45-5.37c-.97-1.52-2.34-2.7-4.1-3.54-1.77-.84-3.84-1.26-6.22-1.26h-10.13v32.84h5.54v-12.43h3.38l8.3,12.43h6.66l-9.31-13.12c.6-.18,1.23-.33,1.77-.59ZM559.73,322.42h4.36c1.25,0,2.35.22,3.3.66s1.7,1.06,2.23,1.87.8,1.82.8,3-.27,2.15-.8,2.98c-.53.83-1.28,1.46-2.23,1.9s-2.06.65-3.3.65h-4.36v-11.07Z"/>
    <polygon class="cls-1" points="592.85 317.63 589.43 317.63 589.43 350.48 592.85 350.48 594.87 350.48 609.42 350.48 609.42 345.6 594.87 345.6 594.87 335.28 608.48 335.28 608.48 330.49 594.87 330.49 594.87 322.51 609.42 322.51 609.42 317.63 594.87 317.63 592.85 317.63"/>
    <path class="cls-1" d="M642.35,334.83c-.81-.8-1.72-1.46-2.7-1.99s-1.96-.97-2.93-1.31c-1.75-.62-3.18-1.23-4.28-1.83-1.09-.59-1.9-1.23-2.41-1.9s-.78-1.43-.78-2.27c0-.94.36-1.76,1.08-2.46.72-.71,1.85-1.05,3.38-1.05,1.09,0,2.06.21,2.88.63.83.43,1.56.99,2.19,1.69.62.71,1.14,1.47,1.54,2.28l4.5-2.53c-.56-1.16-1.33-2.27-2.32-3.34-.98-1.06-2.2-1.94-3.64-2.62-1.44-.69-3.13-1.04-5.06-1.04s-3.74.37-5.28,1.11c-1.55.73-2.78,1.77-3.68,3.09-.91,1.33-1.36,2.87-1.36,4.62,0,1.53.29,2.84.89,3.91.6,1.08,1.35,1.99,2.26,2.73.9.74,1.85,1.35,2.86,1.83,1,.48,1.91.87,2.73,1.15,1.37.5,2.59,1.01,3.63,1.52,1.05.51,1.87,1.14,2.46,1.87.59.74.89,1.72.89,2.93,0,1.28-.47,2.33-1.41,3.14-.93.81-2.15,1.22-3.66,1.22-1.25,0-2.38-.26-3.37-.78-1-.51-1.92-1.25-2.75-2.2-.83-.95-1.6-2.06-2.32-3.31l-4.13,2.87c.72,1.5,1.69,2.89,2.91,4.17,1.22,1.28,2.65,2.31,4.29,3.07,1.64.76,3.43,1.15,5.37,1.15,1.41,0,2.76-.23,4.06-.68,1.3-.46,2.46-1.1,3.49-1.92,1.04-.83,1.85-1.85,2.45-3.07.59-1.22.89-2.6.89-4.13,0-1.44-.24-2.69-.73-3.75-.48-1.06-1.13-1.99-1.94-2.79Z"/>
    <rect class="cls-1" x="658.02" y="317.63" width="5.58" height="32.84"/>
    <path class="cls-1" d="M697.67,319.67c-2.53-1.36-5.48-2.04-8.82-2.04h-10.6v32.84h10.6c3.35,0,6.29-.68,8.82-2.04s4.51-3.27,5.93-5.72c1.42-2.46,2.13-5.34,2.13-8.66s-.71-6.2-2.13-8.66c-1.42-2.45-3.4-4.36-5.93-5.72ZM699.19,338.93c-.58,1.41-1.38,2.58-2.39,3.52-1.02.94-2.21,1.65-3.59,2.11-1.37.47-2.88.71-4.5.71h-4.83v-22.42h4.83c1.63,0,3.13.24,4.5.7,1.38.47,2.57,1.18,3.59,2.12s1.82,2.11,2.39,3.52c.58,1.4.87,3.03.87,4.88s-.29,3.47-.87,4.88Z"/>
    <polygon class="cls-1" points="721.88 317.63 718.45 317.63 718.45 350.48 721.88 350.48 723.9 350.48 738.44 350.48 738.44 345.6 723.9 345.6 723.9 335.28 737.5 335.28 737.5 330.49 723.9 330.49 723.9 322.51 738.44 322.51 738.44 317.63 723.9 317.63 721.88 317.63"/>
    <polygon class="cls-1" points="776.54 339.68 752.57 315.99 752.57 350.48 758.01 350.48 758.01 328.43 781.98 352.12 781.98 317.63 776.54 317.63 776.54 339.68"/>
    <polygon class="cls-1" points="793.29 322.75 801.93 322.75 801.93 350.48 807.51 350.48 807.51 322.75 816.19 322.75 816.19 317.63 793.29 317.63 793.29 322.75"/>
    <rect class="cls-1" x="827.55" y="317.63" width="5.58" height="32.84"/>
    <path class="cls-1" d="M844.25,350.48h6.24l3.74-8.44h12.11l3.77,8.44h6.24l-16.05-34.67-16.05,34.67ZM864.74,337.34h-8.9l4.46-10.42,4.45,10.42Z"/>
    <polygon class="cls-1" points="893 345.5 893 317.63 887.46 317.63 887.46 350.48 906.04 350.48 906.04 345.5 893 345.5"/>
  </g>
</svg>